<?xml version="1.0" encoding="utf-8"?>
<!-- Generator: Adobe Illustrator 24.1.0, SVG Export Plug-In . SVG Version: 6.00 Build 0)  -->
<svg version="1.1" id="Layer_1" xmlns="http://www.w3.org/2000/svg" xmlns:xlink="http://www.w3.org/1999/xlink" x="0px" y="0px"
	 viewBox="0 0 226 55" style="enable-background:new 0 0 226 55;" xml:space="preserve">
<style type="text/css">
	.st0{fill-rule:evenodd;clip-rule:evenodd;fill:#009EE2;}
	.st1{fill-rule:evenodd;clip-rule:evenodd;fill:#FFFFFF;filter:url(#Adobe_OpacityMaskFilter);}
	.st2{mask:url(#mask0_1_);}
</style>
<path class="st0" d="M89.8,13.5v3.9H76.9c-3.6,0-5.5,1.9-5.5,5.7v8.8c0,3.8,1.8,5.8,5.5,5.8h12.9v3.9H76.1c-5.7,0-8.6-3-8.6-9V22.5
	c0-6,2.8-9,8.6-9H89.8z"/>
<path class="st0" d="M99.4,13.5v18.4c0,3.8,1.8,5.8,5.4,5.8h8.9c3.6,0,5.5-1.9,5.5-5.8V13.5h3.8v19c0,6-2.9,9-8.6,9h-10.3
	c-5.7,0-8.6-3-8.6-9v-19H99.4z"/>
<path class="st0" d="M134.6,0.9v31c0,3.8,1.8,5.8,5.4,5.8h9c3.6,0,5.5-1.9,5.5-5.8v-8.8c0-3.8-1.8-5.7-5.5-5.7h-12.5v-3.9h13.3
	c5.7,0,8.6,3,8.6,9v10.1c0,6-2.8,9-8.6,9h-10.5c-5.7,0-8.6-3-8.6-9V0.9H134.6z"/>
<path class="st0" d="M183.9,13.5c5.9,0,8.9,3,8.9,9v10.1c0,6-3,9-8.9,9h-9.7c-6,0-8.9-3-8.9-9V22.5c0-6,3-9,8.9-9H183.9z
	 M169.3,31.9c0,3.8,1.9,5.7,5.7,5.7h8.1c3.8,0,5.7-1.9,5.7-5.7v-8.8c0-3.8-1.9-5.7-5.7-5.7h-8.1c-3.8,0-5.7,1.9-5.7,5.7V31.9z"/>
<defs>
	<filter id="Adobe_OpacityMaskFilter" filterUnits="userSpaceOnUse" x="198.5" y="13.5" width="25.5" height="28">
		<feColorMatrix  type="matrix" values="1 0 0 0 0  0 1 0 0 0  0 0 1 0 0  0 0 0 1 0"/>
	</filter>
</defs>
<mask maskUnits="userSpaceOnUse" x="198.5" y="13.5" width="25.5" height="28" id="mask0_1_">
	<path class="st1" d="M198.5,13.5H224v28h-25.5V13.5z"/>
</mask>
<g class="st2">
	<path class="st0" d="M222.8,13.5v3.4h-17c-2.4,0-3.5,1.1-3.5,3.3v2.2c0,2,1.1,3.1,3.3,3.1H218c4,0,6,1.9,6,5.7v4.1
		c0,4.1-2.2,6.2-6.5,6.2h-18.7v-3.4h17.7c2.5,0,3.7-1.1,3.7-3.3v-3.2c0-2-1.1-3.1-3.2-3.1h-12.5c-4,0-6.1-1.9-6.1-5.8v-3.2
		c0-4.1,2.1-6.2,6.3-6.2H222.8z"/>
</g>
<path class="st0" d="M39.1,4.8c5.1,0,9.2,4.2,9.2,9.4v26.6c0,5.2-4.1,9.4-9.2,9.4H13c-5.1,0-9.2-4.2-9.2-9.4V14.2
	C3.8,9,8,4.8,13,4.8H39.1z M39.1,0.9H13c-7.2,0-13,6-13,13.3v26.6c0,7.3,5.8,13.3,13,13.3h26.1c7.2,0,13-6,13-13.3V14.2
	C52.1,6.9,46.3,0.9,39.1,0.9z"/>
</svg>
